<?xml version="1.0" encoding="UTF-8"?>
<svg version="1.1" xmlns="http://www.w3.org/2000/svg" width="500" height="500">
<path d="M0 0 C0 0.66 0 1.32 0 2 C5.19659918 1.93110281 10.39239528 1.8431269 15.58837891 1.73754883 C17.35554083 1.70431931 19.12280839 1.67628118 20.89013672 1.65356445 C23.43242351 1.61998169 25.97374408 1.56766549 28.515625 1.51171875 C29.30430969 1.50532883 30.09299438 1.4989389 30.90557861 1.49235535 C35.24869203 1.37625506 37.79935566 1.00394574 41 -2 C48.03929432 -3.54725083 54.60162791 -0.67894458 61 2 C61 2.66 61 3.32 61 4 C61.60972656 4.25265625 62.21945313 4.5053125 62.84765625 4.765625 C70.10472563 8.92757405 72.72401759 21.58139991 75 29 C83.19394271 61.00209385 83.19394271 61.00209385 77 72 C72.221154 76.54573156 68.96039358 77.36581025 62.53125 77.2734375 C56.40322294 76.61145927 52.86826997 72.00940422 49.1015625 67.5859375 C48 66 48 66 48 64 C47.34 64 46.68 64 46 64 C45.34 62.35 44.68 60.7 44 59 C43.34 59 42.68 59 42 59 C42 58.34 42 57.68 42 57 C41.34 57 40.68 57 40 57 C40 56.34 40 55.68 40 55 C34.3949675 54.92572332 28.79022289 54.87133792 23.18481445 54.83520508 C21.27883919 54.82013872 19.37289848 54.79968176 17.46704102 54.77368164 C14.72403424 54.73720358 11.98148672 54.72025208 9.23828125 54.70703125 C8.38913651 54.69154739 7.53999176 54.67606354 6.66511536 54.66011047 C1.93541296 54.65877158 -1.15885578 54.92882726 -5 58 C-7.01675343 60.45458201 -7.01675343 60.45458201 -8.8125 63.25 C-12.62837977 68.70953197 -16.93167992 73.96583996 -23 77 C-27.98066973 77.54644038 -31.8958307 77.54204675 -36.4375 75.3125 C-40.29828266 71.82837907 -42.12750262 68.98443827 -42.43359375 63.76953125 C-42.45723697 62.11735615 -42.45726158 60.46472609 -42.4375 58.8125 C-42.43065186 57.93118408 -42.42380371 57.04986816 -42.41674805 56.1418457 C-42.01874881 39.48699384 -37.03167299 21.57599914 -29 7 C-28.34 7 -27.68 7 -27 7 C-26.74863281 6.38511719 -26.49726562 5.77023438 -26.23828125 5.13671875 C-23.84578187 1.00833653 -18.91025209 -0.42692437 -14.5 -1.75 C-4.17391304 -2.7826087 -4.17391304 -2.7826087 0 0 Z M45 14 C45 14.66 45 15.32 45 16 C44.34 16 43.68 16 43 16 C43.37904208 19.29075996 43.37904208 19.29075996 45 22 C46.99958364 22.04080783 49.00045254 22.04254356 51 22 C52.01540112 17.89776415 52.01540112 17.89776415 51 14 C49.02 14 47.04 14 45 14 Z M-14 17 C-14.07148199 18.35243917 -14.08399454 19.70834367 -14.0625 21.0625 C-14.041875 22.361875 -14.02125 23.66125 -14 25 C-16.64 25 -19.28 25 -22 25 C-23.87543354 28.86763446 -23.87543354 28.86763446 -23 33 C-20.03 33 -17.06 33 -14 33 C-14.04882812 36.02734375 -14.04882812 36.02734375 -14.09765625 39.0546875 C-14.12649242 41.08185404 -14.12649242 41.08185404 -13 43 C-11.33388095 43.042721 -9.66617115 43.04063832 -8 43 C-6.50256881 41.50256881 -6.66797307 40.01175761 -6.4375 37.9375 C-6.293125 36.638125 -6.14875 35.33875 -6 34 C-3.03 33.67 -0.06 33.34 3 33 C3.04241723 30.66705225 3.04092937 28.33297433 3 26 C1.99163938 24.76732652 1.99163938 24.76732652 -0.06640625 24.90234375 C-1.30197266 24.91974609 -1.30197266 24.91974609 -2.5625 24.9375 C-3.38878906 24.94652344 -4.21507813 24.95554688 -5.06640625 24.96484375 C-5.70449219 24.97644531 -6.34257813 24.98804688 -7 25 C-6.814375 24.071875 -6.62875 23.14375 -6.4375 22.1875 C-5.75876119 18.98656229 -5.75876119 18.98656229 -7 16 C-10.80621045 15.56152641 -10.80621045 15.56152641 -14 17 Z M34 25 C33.34 26.65 32.68 28.3 32 30 C33.32 31.32 34.64 32.64 36 34 C38.50965614 33.29660434 38.50965614 33.29660434 41 32 C42.1576585 30.12042756 42.1576585 30.12042756 42 28 C40.96040481 26.12640605 40.96040481 26.12640605 39 25 C36.37429296 24.74930087 36.37429296 24.74930087 34 25 Z M55 27 C54.83312552 29.58354218 54.83312552 29.58354218 55 32 C57.475 32.99 57.475 32.99 60 34 C61.32 32.68 62.64 31.36 64 30 C63.34 28.35 62.68 26.7 62 25 C58.04542152 24.65176193 58.04542152 24.65176193 55 27 Z M45 36 C44.34 37.65 43.68 39.3 43 41 C44.72855926 43.14567913 44.72855926 43.14567913 47 45 C50.01811422 44.82246387 50.83735215 44.16264785 53 42 C52.64644564 39.73725212 52.02455574 38.04911148 51 36 C49.02 36 47.04 36 45 36 Z " fill="#E9E5E4" transform="translate(105,175)"/>
<path d="M0 0 C1.29988106 -0.00422974 1.29988106 -0.00422974 2.62602234 -0.00854492 C3.58398209 -0.00652069 4.54194183 -0.00449646 5.52893066 -0.00241089 C6.53208817 -0.00416321 7.53524567 -0.00591553 8.56880188 -0.00772095 C11.90253401 -0.01214152 15.23621357 -0.00920075 18.56994629 -0.00582886 C20.87540701 -0.00650184 23.18086765 -0.00747181 25.48632812 -0.00872803 C30.32524285 -0.01020528 35.16413916 -0.00804957 40.00305176 -0.00338745 C46.22114274 0.00230985 52.43919057 -0.00096901 58.65727997 -0.00695992 C63.42002694 -0.01056479 68.18276359 -0.00942728 72.94551086 -0.00683212 C75.23895777 -0.00616265 77.53240561 -0.00699198 79.82585144 -0.00931168 C83.02508035 -0.011837 86.22423832 -0.0079993 89.42346191 -0.00241089 C90.86040154 -0.00544724 90.86040154 -0.00544724 92.32637024 -0.00854492 C93.19295761 -0.0057251 94.05954498 -0.00290527 94.95239258 0 C95.70972939 0.00037703 96.46706619 0.00075405 97.2473526 0.0011425 C98.97619629 0.12698364 98.97619629 0.12698364 99.97619629 1.12698364 C100.07594661 3.63834469 100.11501812 6.11601779 100.10119629 8.62698364 C100.10506348 9.32952271 100.10893066 10.03206177 100.11291504 10.75588989 C100.10281007 16.00036986 100.10281007 16.00036986 98.97619629 17.12698364 C97.63780156 17.22440432 96.29432804 17.25329923 94.95239258 17.25396729 C93.65251152 17.25819702 93.65251152 17.25819702 92.32637024 17.26251221 C91.36841049 17.26048798 90.41045074 17.25846375 89.42346191 17.25637817 C88.42030441 17.25813049 87.41714691 17.25988281 86.3835907 17.26168823 C83.04985857 17.26610881 79.716179 17.26316803 76.38244629 17.25979614 C74.07698557 17.26046912 71.77152493 17.2614391 69.46606445 17.26269531 C64.62714972 17.26417256 59.78825341 17.26201685 54.94934082 17.25735474 C48.73124984 17.25165744 42.51320201 17.2549363 36.29511261 17.2609272 C31.53236564 17.26453208 26.76962899 17.26339457 22.00688171 17.26079941 C19.7134348 17.26012993 17.41998697 17.26095926 15.12654114 17.26327896 C11.92731222 17.26580428 8.72815426 17.26196659 5.52893066 17.25637817 C4.09199104 17.25941452 4.09199104 17.25941452 2.62602234 17.26251221 C1.75943497 17.25969238 0.8928476 17.25687256 0 17.25396729 C-0.75733681 17.25359026 -1.51467361 17.25321323 -2.29496002 17.25282478 C-4.02380371 17.12698364 -4.02380371 17.12698364 -5.02380371 16.12698364 C-5.12355403 13.6156226 -5.16262554 11.1379495 -5.14880371 8.62698364 C-5.1526709 7.92444458 -5.15653809 7.22190552 -5.16052246 6.49807739 C-5.14800702 0.00256284 -5.14800702 0.00256284 0 0 Z " fill="#DFDCDC" transform="translate(76.0238037109375,281.8730163574219)"/>
<path d="M0 0 C1.29988106 -0.00422974 1.29988106 -0.00422974 2.62602234 -0.00854492 C3.58398209 -0.00652069 4.54194183 -0.00449646 5.52893066 -0.00241089 C6.53208817 -0.00416321 7.53524567 -0.00591553 8.56880188 -0.00772095 C11.90253401 -0.01214152 15.23621357 -0.00920075 18.56994629 -0.00582886 C20.87540701 -0.00650184 23.18086765 -0.00747181 25.48632812 -0.00872803 C30.32524285 -0.01020528 35.16413916 -0.00804957 40.00305176 -0.00338745 C46.22114274 0.00230985 52.43919057 -0.00096901 58.65727997 -0.00695992 C63.42002694 -0.01056479 68.18276359 -0.00942728 72.94551086 -0.00683212 C75.23895777 -0.00616265 77.53240561 -0.00699198 79.82585144 -0.00931168 C83.02508035 -0.011837 86.22423832 -0.0079993 89.42346191 -0.00241089 C90.86040154 -0.00544724 90.86040154 -0.00544724 92.32637024 -0.00854492 C93.19295761 -0.0057251 94.05954498 -0.00290527 94.95239258 0 C95.70972939 0.00037703 96.46706619 0.00075405 97.2473526 0.0011425 C98.97619629 0.12698364 98.97619629 0.12698364 99.97619629 1.12698364 C99.97619629 6.07698364 99.97619629 11.02698364 99.97619629 16.12698364 C65.32619629 16.12698364 30.67619629 16.12698364 -5.02380371 16.12698364 C-5.02380371 0.002501 -5.02380371 0.002501 0 0 Z " fill="#E0DDDC" transform="translate(76.0238037109375,258.8730163574219)"/>
<path d="M0 0 C0.85954788 -0.00281982 1.71909576 -0.00563965 2.60469055 -0.00854492 C4.02221115 -0.00550858 4.02221115 -0.00550858 5.46836853 -0.00241089 C6.46191849 -0.00416321 7.45546844 -0.00591553 8.47912598 -0.00772095 C11.77495553 -0.01213512 15.07073176 -0.0092032 18.36656189 -0.00582886 C20.64817312 -0.00650197 22.92978428 -0.00747205 25.21139526 -0.00872803 C29.99725527 -0.01020437 34.78309663 -0.00805228 39.56895447 -0.00338745 C45.71863569 0.00231301 51.8682733 -0.00097159 58.01795292 -0.00695992 C62.73008557 -0.01056449 67.44220779 -0.00942747 72.15434074 -0.00683212 C74.42266787 -0.00616273 76.69099593 -0.00699169 78.95932198 -0.00931168 C82.12251946 -0.01183686 85.28564518 -0.00799965 88.44883728 -0.00241089 C89.86939423 -0.00544724 89.86939423 -0.00544724 91.31864929 -0.00854492 C97.77964271 0.01272071 97.77964271 0.01272071 98.89390564 1.12698364 C98.89390564 6.07698364 98.89390564 11.02698364 98.89390564 16.12698364 C64.24390564 16.12698364 29.59390564 16.12698364 -6.10609436 16.12698364 C-6.10609436 11.17698364 -6.10609436 6.22698364 -6.10609436 1.12698364 C-3.8156621 -0.01823249 -2.5454651 0.00128125 0 0 Z " fill="#E1DEDD" transform="translate(77.10609436035156,304.8730163574219)"/>
<path d="M0 0 C3.46679688 0.04882812 3.46679688 0.04882812 6.93359375 0.09765625 C6.93359375 3.06765625 6.93359375 6.03765625 6.93359375 9.09765625 C11.38859375 8.60265625 11.38859375 8.60265625 15.93359375 8.09765625 C15.93359375 11.06765625 15.93359375 14.03765625 15.93359375 17.09765625 C12.96359375 17.09765625 9.99359375 17.09765625 6.93359375 17.09765625 C6.93359375 22.37765625 6.93359375 27.65765625 6.93359375 33.09765625 C10.23359375 33.42765625 13.53359375 33.75765625 16.93359375 34.09765625 C17.03671875 33.00453125 17.13984375 31.91140625 17.24609375 30.78515625 C17.93359375 27.09765625 17.93359375 27.09765625 19.05859375 25.28515625 C24.35000271 21.93393058 29.90309475 21.88605979 35.93359375 22.09765625 C35.27359375 20.77765625 34.61359375 19.45765625 33.93359375 18.09765625 C32.28359375 18.09765625 30.63359375 18.09765625 28.93359375 18.09765625 C28.60359375 18.75765625 28.27359375 19.41765625 27.93359375 20.09765625 C24.63359375 20.09765625 21.33359375 20.09765625 17.93359375 20.09765625 C19.83014547 12.36556076 19.83014547 12.36556076 22.93359375 10.09765625 C27.6853862 7.26970897 32.55508969 7.44571636 37.93359375 8.09765625 C40.53105876 9.14653736 41.83197579 10.16643975 43.93359375 12.09765625 C43.93359375 12.75765625 43.93359375 13.41765625 43.93359375 14.09765625 C44.59359375 14.09765625 45.25359375 14.09765625 45.93359375 14.09765625 C45.93359375 23.33765625 45.93359375 32.57765625 45.93359375 42.09765625 C43.29359375 42.42765625 40.65359375 42.75765625 37.93359375 43.09765625 C37.60359375 42.43765625 37.27359375 41.77765625 36.93359375 41.09765625 C36.37542969 41.41863281 35.81726563 41.73960937 35.2421875 42.0703125 C31.2526393 43.8456952 27.20490509 43.80262997 22.93359375 43.09765625 C19.87109375 40.66015625 19.87109375 40.66015625 17.93359375 38.09765625 C17.43859375 37.60265625 17.43859375 37.60265625 16.93359375 37.09765625 C16.27359375 39.07765625 15.61359375 41.05765625 14.93359375 43.09765625 C2.88574828 43.66734421 2.88574828 43.66734421 -1.06640625 40.09765625 C-2.86037491 37.14483596 -3.3081271 34.98499942 -3.26171875 31.55078125 C-3.25527344 30.70644531 -3.24882812 29.86210937 -3.2421875 28.9921875 C-3.22542969 28.11949219 -3.20867187 27.24679687 -3.19140625 26.34765625 C-3.18238281 25.45949219 -3.17335938 24.57132812 -3.1640625 23.65625 C-3.14055202 21.46977567 -3.10769124 19.28385531 -3.06640625 17.09765625 C-4.38640625 17.09765625 -5.70640625 17.09765625 -7.06640625 17.09765625 C-7.06640625 14.45765625 -7.06640625 11.81765625 -7.06640625 9.09765625 C-5.74640625 8.76765625 -4.42640625 8.43765625 -3.06640625 8.09765625 C-3.08703125 6.96328125 -3.10765625 5.82890625 -3.12890625 4.66015625 C-3.04967763 0.14412465 -3.04967763 0.14412465 0 0 Z M26.93359375 30.09765625 C27.26359375 31.41765625 27.59359375 32.73765625 27.93359375 34.09765625 C32.07453073 34.30736184 32.07453073 34.30736184 35.93359375 33.09765625 C35.93359375 31.77765625 35.93359375 30.45765625 35.93359375 29.09765625 C31.28306503 28.82833104 31.28306503 28.82833104 26.93359375 30.09765625 Z " fill="#DCD8D9" transform="translate(333.06640625,244.90234375)"/>
<path d="M0 0 C1.90625 1.09375 1.90625 1.09375 4.40625 3.09375 C4.40625 3.75375 4.40625 4.41375 4.40625 5.09375 C5.06625 5.09375 5.72625 5.09375 6.40625 5.09375 C8.17087683 8.18184695 8.40625 9.32687136 8.40625 13.09375 C4.89848216 14.69730101 2.26270121 15.31411864 -1.59375 15.09375 C-1.59375 14.43375 -1.59375 13.77375 -1.59375 13.09375 C-2.25375 13.09375 -2.91375 13.09375 -3.59375 13.09375 C-3.59375 12.43375 -3.59375 11.77375 -3.59375 11.09375 C-4.25375 11.09375 -4.91375 11.09375 -5.59375 11.09375 C-5.59375 10.43375 -5.59375 9.77375 -5.59375 9.09375 C-8.89375 9.09375 -12.19375 9.09375 -15.59375 9.09375 C-15.59375 9.75375 -15.59375 10.41375 -15.59375 11.09375 C-16.58375 11.75375 -17.57375 12.41375 -18.59375 13.09375 C-21.22564567 18.26039083 -21.27593533 23.41996471 -20.59375 29.09375 C-18.98215639 32.37449414 -17.6351266 34.2383335 -14.84375 36.53125 C-11.20760031 37.44028742 -8.27140623 36.80555443 -4.59375 36.09375 C-2.4552015 33.9552015 -2.16719937 32.96099686 -1.59375 30.09375 C-4.23375 30.09375 -6.87375 30.09375 -9.59375 30.09375 C-9.59375 27.45375 -9.59375 24.81375 -9.59375 22.09375 C-2.99375 22.09375 3.60625 22.09375 10.40625 22.09375 C10.40625 30.10824777 9.92530882 35.09405219 5.09375 41.40625 C0.32008276 46.17991724 -3.30036251 47.29254329 -9.96875 47.53125 C-17.64990083 47.32152575 -22.55713552 45.48747055 -27.90625 39.96875 C-32.53941146 34.08577114 -34.40010641 26.48535042 -33.59375 19.09375 C-31.83011012 11.45131053 -28.70650178 5.79146821 -22.78125 0.65625 C-16.6013918 -2.49506842 -6.45210397 -2.25434958 0 0 Z " fill="#DAD7D8" transform="translate(234.59375,240.90625)"/>
<path d="M0 0 C4.08825691 2.08837366 6.47356817 5.30112589 8.5546875 9.296875 C8.5546875 10.616875 8.5546875 11.936875 8.5546875 13.296875 C5.2546875 14.286875 1.9546875 15.276875 -1.4453125 16.296875 C-2.1259375 15.0903125 -2.1259375 15.0903125 -2.8203125 13.859375 C-4.19256915 11.20830928 -4.19256915 11.20830928 -6.4453125 10.296875 C-9.50248139 9.88374407 -12.39555728 9.80305343 -15.4453125 10.296875 C-18.68774488 13.29612495 -20.24458163 16.0888354 -20.6484375 20.53125 C-20.75512988 26.25707442 -20.35574864 30.30755589 -17.4453125 35.296875 C-14.47682842 37.22894869 -12.19702357 37.5248665 -8.6953125 37.421875 C-7.89609375 37.40382813 -7.096875 37.38578125 -6.2734375 37.3671875 C-5.67015625 37.34398437 -5.066875 37.32078125 -4.4453125 37.296875 C-4.4453125 36.636875 -4.4453125 35.976875 -4.4453125 35.296875 C-3.7853125 35.296875 -3.1253125 35.296875 -2.4453125 35.296875 C-2.1153125 33.646875 -1.7853125 31.996875 -1.4453125 30.296875 C-4.4153125 30.296875 -7.3853125 30.296875 -10.4453125 30.296875 C-10.4453125 27.656875 -10.4453125 25.016875 -10.4453125 22.296875 C-3.8453125 22.296875 2.7546875 22.296875 9.5546875 22.296875 C10.08724272 30.01892575 10.24276435 35.22116654 5.37109375 41.44921875 C0.49122169 46.4130456 -4.04925313 47.53378834 -10.9453125 47.796875 C-17.44977036 47.57102577 -22.17395326 46.35853172 -26.96875 41.87109375 C-32.22328883 35.99390726 -32.82998772 30.52657992 -32.8828125 22.984375 C-32.91568359 22.16775391 -32.94855469 21.35113281 -32.98242188 20.50976562 C-33.0472554 13.11284943 -30.43643281 8.60252548 -25.55078125 3.203125 C-18.24674163 -2.152179 -8.57496321 -2.46564437 0 0 Z " fill="#DCD8D9" transform="translate(280.4453125,240.703125)"/>
<path d="M0 0 C3.26831168 2.04372908 5.29437323 4.80824259 6.85546875 8.27734375 C6.85546875 9.59734375 6.85546875 10.91734375 6.85546875 12.27734375 C3.38221694 13.43509435 0.49479427 13.34601027 -3.14453125 13.27734375 C-3.80453125 11.95734375 -4.46453125 10.63734375 -5.14453125 9.27734375 C-8.11453125 9.27734375 -11.08453125 9.27734375 -14.14453125 9.27734375 C-13.87796553 12.21177777 -13.87796553 12.21177777 -13.14453125 15.27734375 C-10.14955256 17.27399621 -8.28246924 17.81194418 -4.83203125 18.58984375 C0.30386838 19.92993941 3.20587243 21.43566341 6.85546875 25.27734375 C8.50659329 30.23071736 8.71514013 35.24127995 6.66796875 40.08984375 C4.1409637 43.13967743 1.40628309 45.50193658 -2.14453125 47.27734375 C-15.79185578 48.25753833 -15.79185578 48.25753833 -21.14453125 44.27734375 C-24.62275237 40.79912263 -25.69078836 38.1550798 -26.14453125 33.27734375 C-21.19453125 32.78234375 -21.19453125 32.78234375 -16.14453125 32.27734375 C-15.48453125 33.59734375 -14.82453125 34.91734375 -14.14453125 36.27734375 C-11.73907487 37.48007194 -10.19456172 37.37805847 -7.51953125 37.33984375 C-6.29363281 37.32630859 -6.29363281 37.32630859 -5.04296875 37.3125 C-4.41648437 37.30089844 -3.79 37.28929687 -3.14453125 37.27734375 C-3.08293705 33.86597899 -3.08293705 33.86597899 -4.14453125 30.27734375 C-7.25088349 28.46530494 -9.99540069 27.59306051 -13.43359375 26.6484375 C-17.871892 25.3496044 -21.49488947 24.16360407 -24.328125 20.21484375 C-26.10371031 16.0010145 -25.97461298 11.71103427 -25.14453125 7.27734375 C-20.50953294 -1.93790879 -9.04023919 -3.04634654 0 0 Z " fill="#D9D5D6" transform="translate(318.14453125,240.72265625)"/>
<path d="M0 0 C3.3 0 6.6 0 10 0 C10.33 7.59 10.66 15.18 11 23 C12.98 20.36 14.96 17.72 17 15 C20.45214853 12.69856764 21.23479324 12.86166146 25.1875 13.375 C26.08855469 13.48585937 26.98960937 13.59671875 27.91796875 13.7109375 C28.60503906 13.80632812 29.29210937 13.90171875 30 14 C28.59835111 18.76560621 25.84588526 21.95882443 22 25 C21.34 25 20.68 25 20 25 C22.21691607 31.09651919 25.62806545 36.03588392 29.35546875 41.328125 C31 44 31 44 31 47 C27.17338675 47.61280283 23.79671857 47.877371 20 47 C17.22596596 44.0033918 15.72491465 40.66619489 14 37 C13.34 36.34 12.68 35.68 12 35 C10.26043342 36.73956658 10.62809614 39.1936622 10.4375 41.5625 C10.35371094 42.57441406 10.26992188 43.58632813 10.18359375 44.62890625 C10.12300781 45.41136719 10.06242187 46.19382812 10 47 C6.7 47 3.4 47 0 47 C0 31.49 0 15.98 0 0 Z " fill="#DCD8D9" transform="translate(415,240)"/>
<path d="M0 0 C3.15912871 2.25652051 4.78217064 4.47285349 6.625 7.875 C6.625 8.865 6.625 9.855 6.625 10.875 C5.00036158 10.92895478 3.37521459 10.96777195 1.75 11 C0.39261719 11.03480469 0.39261719 11.03480469 -0.9921875 11.0703125 C-3.375 10.875 -3.375 10.875 -5.375 8.875 C-8.45847826 8.70818891 -8.45847826 8.70818891 -11.375 8.875 C-11.705 9.535 -12.035 10.195 -12.375 10.875 C-13.035 10.875 -13.695 10.875 -14.375 10.875 C-14.375 14.505 -14.375 18.135 -14.375 21.875 C-13.715 21.875 -13.055 21.875 -12.375 21.875 C-12.045 22.535 -11.715 23.195 -11.375 23.875 C-8.45847826 24.04181109 -8.45847826 24.04181109 -5.375 23.875 C-4.715 23.215 -4.055 22.555 -3.375 21.875 C-0.9921875 21.6796875 -0.9921875 21.6796875 1.75 21.75 C2.66007812 21.76804687 3.57015625 21.78609375 4.5078125 21.8046875 C5.20648438 21.82789063 5.90515625 21.85109375 6.625 21.875 C6.12114177 26.28375955 4.7136933 28.70050966 1.625 31.875 C-2.88772251 34.66226978 -8.24382975 34.50036137 -13.375 33.875 C-17.79228585 32.55316067 -20.48096649 30.26879554 -22.8125 26.3125 C-25.28105068 20.57392115 -25.40384892 14.52163021 -23.71484375 8.53515625 C-21.89465066 4.30379829 -19.60760101 1.51577468 -15.43359375 -0.50390625 C-10.15924021 -2.09521975 -5.1723071 -1.72410237 0 0 Z " fill="#D1CDCE" transform="translate(406.375,254.125)"/>
<path d="M0 0 C2.59746501 1.04888111 3.89838204 2.0687835 6 4 C6 4.66 6 5.32 6 6 C6.66 6 7.32 6 8 6 C8 15.24 8 24.48 8 34 C5.36 34.33 2.72 34.66 0 35 C-0.33 34.34 -0.66 33.68 -1 33 C-1.8971875 33.3403125 -1.8971875 33.3403125 -2.8125 33.6875 C-3.8953125 33.8421875 -3.8953125 33.8421875 -5 34 C-6.75 32.5625 -6.75 32.5625 -8 31 C-8.99 31.66 -9.98 32.32 -11 33 C-11.99 32.67 -12.98 32.34 -14 32 C-14.6875 29.9375 -14.6875 29.9375 -15 28 C-11.00439392 25.16977903 -7.57262677 26.23789554 -3 27 C-2.01 23.535 -2.01 23.535 -1 20 C-3.64 19.67 -6.28 19.34 -9 19 C-9.33 17.35 -9.66 15.7 -10 14 C-7.36 14 -4.72 14 -2 14 C-2.66 12.68 -3.32 11.36 -4 10 C-5.65 10 -7.3 10 -9 10 C-9.33 10.66 -9.66 11.32 -10 12 C-13.3 12 -16.6 12 -20 12 C-18.10344828 4.26790451 -18.10344828 4.26790451 -15 2 C-10.24820755 -0.82794728 -5.37850406 -0.65193989 0 0 Z " fill="#EDE9E9" transform="translate(371,253)"/>
<path d="M0 0 C1.90625 1.09375 1.90625 1.09375 4.40625 3.09375 C4.40625 3.75375 4.40625 4.41375 4.40625 5.09375 C5.06625 5.09375 5.72625 5.09375 6.40625 5.09375 C8.17087683 8.18184695 8.40625 9.32687136 8.40625 13.09375 C4.89848216 14.69730101 2.26270121 15.31411864 -1.59375 15.09375 C-1.59375 14.43375 -1.59375 13.77375 -1.59375 13.09375 C-2.25375 13.09375 -2.91375 13.09375 -3.59375 13.09375 C-3.59375 12.43375 -3.59375 11.77375 -3.59375 11.09375 C-4.25375 11.09375 -4.91375 11.09375 -5.59375 11.09375 C-5.59375 10.43375 -5.59375 9.77375 -5.59375 9.09375 C-8.89375 9.09375 -12.19375 9.09375 -15.59375 9.09375 C-15.59375 9.75375 -15.59375 10.41375 -15.59375 11.09375 C-16.58375 11.75375 -17.57375 12.41375 -18.59375 13.09375 C-20.98151412 17.47131756 -21.18953472 22.2112549 -21.59375 27.09375 C-21.92375 27.09375 -22.25375 27.09375 -22.59375 27.09375 C-22.92375 24.78375 -23.25375 22.47375 -23.59375 20.09375 C-27.01953949 23.26914556 -27.01953949 23.26914556 -29.59375 27.09375 C-30.25375 27.09375 -30.91375 27.09375 -31.59375 27.09375 C-31.92375 28.08375 -32.25375 29.07375 -32.59375 30.09375 C-34.83884201 23.07783748 -33.48092067 16.64496056 -30.59375 10.09375 C-28.30703511 5.83024129 -25.41620168 1.99990086 -21.01171875 -0.24609375 C-14.61684281 -1.99202918 -6.28370151 -2.19551017 0 0 Z " fill="#CDC9C9" transform="translate(234.59375,240.90625)"/>
<path d="M0 0 C0.90105469 0.11085937 1.80210937 0.22171875 2.73046875 0.3359375 C3.41753906 0.43132812 4.10460937 0.52671875 4.8125 0.625 C3.41085111 5.39060621 0.65838526 8.58382443 -3.1875 11.625 C-3.8475 11.625 -4.5075 11.625 -5.1875 11.625 C-2.97058393 17.72151919 0.44056545 22.66088392 4.16796875 27.953125 C5.8125 30.625 5.8125 30.625 5.8125 33.625 C1.98630732 34.23773548 -1.38941307 34.49223856 -5.1875 33.625 C-8.02188184 30.66304324 -9.56411252 27.35822555 -11.1875 23.625 C-11.84878132 22.28898756 -12.51338814 20.95458468 -13.1875 19.625 C-12.1975 19.625 -11.2075 19.625 -10.1875 19.625 C-11.1775 18.635 -12.1675 17.645 -13.1875 16.625 C-12.81625 16.0475 -12.445 15.47 -12.0625 14.875 C-10.89583333 12.625 -10.89583333 12.625 -12.0625 10.375 C-12.619375 9.50875 -12.619375 9.50875 -13.1875 8.625 C-12.42337913 7.49543002 -11.65090197 6.37151022 -10.875 5.25 C-10.44574219 4.62351562 -10.01648438 3.99703125 -9.57421875 3.3515625 C-6.59252039 -0.36086194 -4.45126254 -0.57808604 0 0 Z " fill="#D8D5D5" transform="translate(440.1875,253.375)"/>
<path d="M0 0 C0.33 0.99 0.66 1.98 1 3 C2.87387216 3.80212628 2.87387216 3.80212628 5.0625 4.1875 C5.79597656 4.34605469 6.52945312 4.50460937 7.28515625 4.66796875 C7.85105469 4.77753906 8.41695313 4.88710938 9 5 C8.67 6.32 8.34 7.64 8 9 C8 8.01 8 7.02 8 6 C3.545 6.495 3.545 6.495 -1 7 C-0.67 7.99 -0.34 8.98 0 10 C2.31 10 4.62 10 7 10 C7 10.66 7 11.32 7 12 C6.06027344 11.98259766 6.06027344 11.98259766 5.1015625 11.96484375 C3.87566406 11.95130859 3.87566406 11.95130859 2.625 11.9375 C1.40683594 11.92009766 1.40683594 11.92009766 0.1640625 11.90234375 C-2.04937142 11.85533666 -2.04937142 11.85533666 -4 13 C-3.67 13.99 -3.34 14.98 -3 16 C-2.01 16.33 -1.02 16.66 0 17 C0.33 16.34 0.66 15.68 1 15 C2.32 15.66 3.64 16.32 5 17 C5 17.99 5 18.98 5 20 C-4.01076716 20.78734859 -4.01076716 20.78734859 -8.0625 17.5625 C-8.701875 16.716875 -9.34125 15.87125 -10 15 C-10.33 14.67 -10.66 14.34 -11 14 C-11.33 15.65 -11.66 17.3 -12 19 C-12.33 19 -12.66 19 -13 19 C-13 16.69 -13 14.38 -13 12 C-15.31 12 -17.62 12 -20 12 C-19.67 11.34 -19.34 10.68 -19 10 C-16.36 10.33 -13.72 10.66 -11 11 C-10.896875 9.906875 -10.79375 8.81375 -10.6875 7.6875 C-9.81910728 3.02975724 -9.81910728 3.02975724 -7 1 C-4.53721199 -0.231394 -2.7204945 -0.07159196 0 0 Z " fill="#BAB7B9" transform="translate(361,268)"/>
<path d="M0 0 C0.185625 0.61875 0.37125 1.2375 0.5625 1.875 C2.71437233 5.05602866 5.37533763 5.19451947 9 6 C9.33 5.34 9.66 4.68 10 4 C10 4.99 10 5.98 10 7 C9.34 7.66 8.68 8.32 8 9 C8.99 10.485 8.99 10.485 10 12 C11.32 11.34 12.64 10.68 14 10 C13.95875 10.94875 13.9175 11.8975 13.875 12.875 C13.65026182 16.10244856 13.65026182 16.10244856 16 18 C15.34 18 14.68 18 14 18 C13.896875 18.639375 13.79375 19.27875 13.6875 19.9375 C13.460625 20.618125 13.23375 21.29875 13 22 C12.01 22.33 11.02 22.66 10 23 C9.67 22.01 9.34 21.02 9 20 C7.02 20 5.04 20 3 20 C2.67 20.66 2.34 21.32 2 22 C0.5 20.6875 0.5 20.6875 -1 19 C-1 18.01 -1 17.02 -1 16 C-1.08333333 13.41666667 -1.08333333 13.41666667 -2 11 C-4.47636012 9.62533375 -4.47636012 9.62533375 -7 9 C-5.68 8.67 -4.36 8.34 -3 8 C-3 7.01 -3 6.02 -3 5 C-2.34 4.67 -1.68 4.34 -1 4 C-0.34786708 1.97536745 -0.34786708 1.97536745 0 0 Z " fill="#D3CFD1" transform="translate(147,191)"/>
<path d="M0 0 C0.96164062 -0.00515625 1.92328125 -0.0103125 2.9140625 -0.015625 C5.375 0.25 5.375 0.25 7.375 2.25 C6.715 2.25 6.055 2.25 5.375 2.25 C5.375 3.57 5.375 4.89 5.375 6.25 C5.09616193 9.2574678 4.72795438 12.24988781 4.375 15.25 C1.405 15.25 -1.565 15.25 -4.625 15.25 C-4.625 14.92 -4.625 14.59 -4.625 14.25 C-1.985 14.25 0.655 14.25 3.375 14.25 C2.715 12.93 2.055 11.61 1.375 10.25 C-0.275 10.25 -1.925 10.25 -3.625 10.25 C-3.955 10.91 -4.285 11.57 -4.625 12.25 C-7.925 12.25 -11.225 12.25 -14.625 12.25 C-12.72844828 4.51790451 -12.72844828 4.51790451 -9.625 2.25 C-6.34266811 0.26448227 -3.81469799 -0.02056441 0 0 Z " fill="#E0DBDD" transform="translate(365.625,252.75)"/>
<path d="M0 0 C17.07744875 -0.738041 17.07744875 -0.738041 23 4 C23 4.66 23 5.32 23 6 C23.66 6 24.32 6 25 6 C26.76462683 9.08809695 27 10.23312136 27 14 C23.49223216 15.60355101 20.85645121 16.22036864 17 16 C17 15.34 17 14.68 17 14 C16.34 14 15.68 14 15 14 C15 13.34 15 12.68 15 12 C14.34 12 13.68 12 13 12 C13 11.34 13 10.68 13 10 C10.03 10 7.06 10 4 10 C4 9.67 4 9.34 4 9 C6.31 9 8.62 9 11 9 C11 6.69 11 4.38 11 2 C7.37 1.67 3.74 1.34 0 1 C0 0.67 0 0.34 0 0 Z " fill="#C0BCBD" transform="translate(216,240)"/>
<path d="M0 0 C6.27 0 12.54 0 19 0 C19 3.96 19 7.92 19 12 C17.02 12.99 15.04 13.98 13 15 C13 14.34 13 13.68 13 13 C11.68 12.34 10.36 11.68 9 11 C9 9.68 9 8.36 9 7 C6.03 7 3.06 7 0 7 C0 4.69 0 2.38 0 0 Z " fill="#EDE9E9" transform="translate(271,263)"/>
<path d="M0 0 C6.27 0 12.54 0 19 0 C19 2.31 19 4.62 19 7 C18.34 6.67 17.68 6.34 17 6 C17 7.98 17 9.96 17 12 C16.071875 11.95875 15.14375 11.9175 14.1875 11.875 C10.84190281 11.72863661 10.84190281 11.72863661 8 14 C8 12.02 8 10.04 8 8 C5.36 8 2.72 8 0 8 C0 5.36 0 2.72 0 0 Z " fill="#F2EEEF" transform="translate(225,263)"/>
<path d="M0 0 C0.33 0 0.66 0 1 0 C1.3982899 7.4347448 0.28988676 13.29970439 -4.3125 19.3125 C-9.31343876 24.31343876 -12.90512105 25.16482144 -19.875 25.1875 C-21.91705977 25.13953215 -23.95901391 25.08176057 -26 25 C-26 24.67 -26 24.34 -26 24 C-22.04 23.505 -22.04 23.505 -18 23 C-17.40267181 20.23735711 -17 17.83967231 -17 15 C-11.25 12 -11.25 12 -9 12 C-8.360625 11.814375 -7.72125 11.62875 -7.0625 11.4375 C-5 11 -5 11 -2 12 C-2.33 9.69 -2.66 7.38 -3 5 C-2.34 5.33 -1.68 5.66 -1 6 C-0.67 4.02 -0.34 2.04 0 0 Z " fill="#D9D6D6" transform="translate(244,263)"/>
<path d="M0 0 C13.95685258 -0.68828314 13.95685258 -0.68828314 17.6875 1.6875 C21.44829792 5.44829792 23 7.60096205 23 13 C19.52674819 14.1577506 16.63932552 14.06866652 13 14 C12.34 12.68 11.68 11.36 11 10 C8.03 10 5.06 10 2 10 C1.34 11.32 0.68 12.64 0 14 C-0.042721 12.33388095 -0.04063832 10.66617115 0 9 C1.81115956 7.18884044 4.61278227 7.61800552 7.0625 7.4375 C8.16722656 7.35371094 9.27195312 7.26992187 10.41015625 7.18359375 C11.69212891 7.09271484 11.69212891 7.09271484 13 7 C12.67 5.35 12.34 3.7 12 2 C11.773125 2.639375 11.54625 3.27875 11.3125 3.9375 C10 6 10 6 7.375 6.75 C6.199375 6.87375 6.199375 6.87375 5 7 C5.875 3.125 5.875 3.125 7 2 C4.69 1.67 2.38 1.34 0 1 C0 0.67 0 0.34 0 0 Z " fill="#C5C1C3" transform="translate(302,240)"/>
<path d="M0 0 C3.3 0 6.6 0 10 0 C9.49614177 4.40875955 8.0886933 6.82550966 5 10 C0.49967991 12.77960947 -4.87047711 12.39038847 -10 12 C-10.66 11.67 -11.32 11.34 -12 11 C-12 7 -12 7 -10.9375 5.25 C-8.01701466 3.36581591 -5.38552395 3.80836657 -2 4 C-1.67 4.66 -1.34 5.32 -1 6 C-0.67 4.02 -0.34 2.04 0 0 Z " fill="#DCD9D8" transform="translate(403,276)"/>
<path d="M0 0 C-0.33 1.65 -0.66 3.3 -1 5 C-1.66 5 -2.32 5 -3 5 C-2.01 6.32 -1.02 7.64 0 9 C0.99 8.34 1.98 7.68 3 7 C5.33199388 6.92094936 7.66832622 6.91201231 10 7 C9.67 9.31 9.34 11.62 9 14 C-1.7479691 14.86060251 -1.7479691 14.86060251 -5.5625 11.75 C-9.05575374 7.80889321 -10 6.30948226 -10 1 C-6.59437148 0.22157062 -3.49234244 -0.09978121 0 0 Z " fill="#EAE6E7" transform="translate(302,273)"/>
<path d="M0 0 C4.44633599 1.39741988 7.0489709 3.39318665 10 7 C10.8125 10.3125 10.8125 10.3125 11 13 C6.05 14.485 6.05 14.485 1 16 C0.71125 15.21625 0.4225 14.4325 0.125 13.625 C-3.09984812 9.64136409 -7.09147165 9.61701951 -12 9 C-12 8.67 -12 8.34 -12 8 C-10.948125 7.87625 -9.89625 7.7525 -8.8125 7.625 C-5.54041229 7.08859218 -2.99463924 6.36119965 0 5 C0 3.35 0 1.7 0 0 Z " fill="#CBC6C8" transform="translate(278,241)"/>
<path d="M0 0 C3.82350061 3.39866721 6.71296575 7.43530459 9 12 C9 12.99 9 13.98 9 15 C5.17189265 15.6130421 1.79665393 15.88536511 -2 15 C-4.77821763 12.00645738 -6.41578092 8.74330246 -8 5 C-7.360625 4.855625 -6.72125 4.71125 -6.0625 4.5625 C-4.02454854 4.18992819 -4.02454854 4.18992819 -3 3 C-2.01 2.67 -1.02 2.34 0 2 C0 1.34 0 0.68 0 0 Z " fill="#CBC7C9" transform="translate(437,272)"/>
<path d="M0 0 C0.33 0 0.66 0 1 0 C1 2.31 1 4.62 1 7 C3.97 7 6.94 7 10 7 C10.33 8.32 10.66 9.64 11 11 C12.76622169 12.42481768 12.76622169 12.42481768 15 13 C17.19747131 12.70194993 17.19747131 12.70194993 19 12 C17.23186986 17.62586863 13.83239156 20.77840563 9 24 C6.66800612 24.07905064 4.33167378 24.08798769 2 24 C2.33 22.68 2.66 21.36 3 20 C3.66 20 4.32 20 5 20 C5.33 18.68 5.66 17.36 6 16 C6.99 16 7.98 16 9 16 C9 15.34 9 14.68 9 14 C8.01 14.33 7.02 14.66 6 15 C6 14.34 6 13.68 6 13 C6.66 13 7.32 13 8 13 C8.33 11.35 8.66 9.7 9 8 C6.03 8 3.06 8 0 8 C0 5.36 0 2.72 0 0 Z " fill="#C8C4C5" transform="translate(270,263)"/>
<path d="M0 0 C0.474375 0.66 0.94875 1.32 1.4375 2 C5.14875563 4.89658976 8.45397207 4.34969446 13 4 C13.33 3.34 13.66 2.68 14 2 C14.99 3.485 14.99 3.485 16 5 C18.97903963 6.15317663 19.86559131 6.0448029 23 5 C21.27592413 9.38855677 18.17026127 11.91486937 14 14 C11.7927077 14.07092842 9.58332548 14.08415025 7.375 14.0625 C6.18648438 14.05347656 4.99796875 14.04445313 3.7734375 14.03515625 C2.85820312 14.02355469 1.94296875 14.01195312 1 14 C1 13.67 1 13.34 1 13 C4.465 12.505 4.465 12.505 8 12 C8.144375 11.38125 8.28875 10.7625 8.4375 10.125 C9 8 9 8 10 6 C5.94393835 6.46800711 2.53411321 6.87953208 -1 9 C-1.66 7.35 -2.32 5.7 -3 4 C-2.34 3.67 -1.68 3.34 -1 3 C-0.67 2.01 -0.34 1.02 0 0 Z " fill="#CFCCCD" transform="translate(302,274)"/>
<path d="M0 0 C1.27230469 0.01804688 2.54460937 0.03609375 3.85546875 0.0546875 C5.31919922 0.08949219 5.31919922 0.08949219 6.8125 0.125 C6.49539062 0.73859375 6.17828125 1.3521875 5.8515625 1.984375 C4.85621515 4.03494021 4.28838139 5.90422017 3.8125 8.125 C2.74 8.269375 1.6675 8.41375 0.5625 8.5625 C-2.10412949 8.96249442 -4.60149729 9.40091924 -7.1875 10.125 C-7.31125 9.320625 -7.435 8.51625 -7.5625 7.6875 C-7.871875 6.4190625 -7.871875 6.4190625 -8.1875 5.125 C-8.8475 4.795 -9.5075 4.465 -10.1875 4.125 C-10.5175 4.785 -10.8475 5.445 -11.1875 6.125 C-10.875 4.25 -10.875 4.25 -10.1875 2.125 C-6.4507157 -0.36618953 -4.44298181 -0.0815226 0 0 Z M-10.1875 9.125 C-8.1875 10.125 -8.1875 10.125 -8.1875 10.125 Z " fill="#F1EEED" transform="translate(223.1875,240.875)"/>
<path d="M0 0 C2.0625 0.1875 2.0625 0.1875 4 1 C5.34538144 5.03614433 5.69602441 8.78475105 5 13 C2.8125 15.1875 2.8125 15.1875 0 16 C-2.8125 15.1875 -2.8125 15.1875 -5 14 C-4.25 7.25 -4.25 7.25 -2 5 C-2 4.01 -2 3.02 -2 2 C-1.34 1.34 -0.68 0.68 0 0 Z " fill="#E0DDDD" transform="translate(321,265)"/>
<path d="M0 0 C3.44830801 0.287359 4.76218649 0.76218649 7.25 3.25 C8.97676682 5.96349071 9.63831913 7.83529243 10 11 C8.37536158 11.05395478 6.75021459 11.09277195 5.125 11.125 C3.76761719 11.15980469 3.76761719 11.15980469 2.3828125 11.1953125 C0 11 0 11 -2 9 C-4.57061311 8.35232207 -4.57061311 8.35232207 -7 8 C-7 7.67 -7 7.34 -7 7 C-5.35 7 -3.7 7 -2 7 C-2.33 6.01 -2.66 5.02 -3 4 C-2.34 3.67 -1.68 3.34 -1 3 C-0.67 2.01 -0.34 1.02 0 0 Z " fill="#ACA8A8" transform="translate(403,254)"/>
<path d="M0 0 C1.9453125 -0.29296875 1.9453125 -0.29296875 4.125 -0.1875 C5.40375 -0.125625 6.6825 -0.06375 8 0 C7.34 1.65 6.68 3.3 6 5 C6.99 5 7.98 5 9 5 C9.33 3.35 9.66 1.7 10 0 C10.99 0.33 11.98 0.66 13 1 C13 2.65 13 4.3 13 6 C11.04200486 6.33531415 9.08359226 6.66819143 7.125 7 C6.03445313 7.185625 4.94390625 7.37125 3.8203125 7.5625 C1 8 1 8 -1 8 C-1.33 8.66 -1.66 9.32 -2 10 C-2.66 10 -3.32 10 -4 10 C-4.66 10.66 -5.32 11.32 -6 12 C-6.99 12.495 -6.99 12.495 -8 13 C-8.375 10.8125 -8.375 10.8125 -8 8 C-5.125 5.375 -5.125 5.375 -2 3 C-1.34 2.01 -0.68 1.02 0 0 Z " fill="#F1EEED" transform="translate(302,241)"/>
<path d="M0 0 C1.9375 0.875 1.9375 0.875 3.1875 2.6875 C3.9375 4.875 3.9375 4.875 3.9375 8.875 C0.42973216 10.47855101 -2.20604879 11.09536864 -6.0625 10.875 C-6.0625 10.215 -6.0625 9.555 -6.0625 8.875 C-6.7225 8.875 -7.3825 8.875 -8.0625 8.875 C-8.3925 7.555 -8.7225 6.235 -9.0625 4.875 C-8.0725 4.875 -7.0825 4.875 -6.0625 4.875 C-5.7325 3.885 -5.4025 2.895 -5.0625 1.875 C-2.0625 -0.125 -2.0625 -0.125 0 0 Z " fill="#E9E5E6" transform="translate(239.0625,245.125)"/>
<path d="M0 0 C0.33 0 0.66 0 1 0 C1.33 4.29 1.66 8.58 2 13 C0.35 13.33 -1.3 13.66 -3 14 C-3.7425 14.20625 -4.485 14.4125 -5.25 14.625 C-5.8275 14.74875 -6.405 14.8725 -7 15 C-8 14 -8 14 -8.0625 11.4375 C-8.041875 10.633125 -8.02125 9.82875 -8 9 C-7.34 9 -6.68 9 -6 9 C-5.7525 8.21625 -5.505 7.4325 -5.25 6.625 C-3.84610901 3.67682892 -2.99324263 3.0975223 0 2 C0 1.34 0 0.68 0 0 Z " fill="#EEECEB" transform="translate(211,259)"/>
<path d="M0 0 C0.25 2.8125 0.25 2.8125 0 6 C-1.875 7.875 -1.875 7.875 -4 9 C-4.66 9 -5.32 9 -6 9 C-6.33 10.98 -6.66 12.96 -7 15 C-8.65 15 -10.3 15 -12 15 C-11.67 13.02 -11.34 11.04 -11 9 C-9.68 9 -8.36 9 -7 9 C-7 6.36 -7 3.72 -7 1 C-4.53721199 -0.231394 -2.7204945 -0.07159196 0 0 Z " fill="#F0ECED" transform="translate(339,246)"/>
<path d="M0 0 C0 2.31 0 4.62 0 7 C-3.3 7 -6.6 7 -10 7 C-10.33 5.35 -10.66 3.7 -11 2 C-7.36576791 -0.32590854 -4.22911669 -0.16265833 0 0 Z " fill="#F4F2F2" transform="translate(348,280)"/>
<path d="M0 0 C1.32 1.65 2.64 3.3 4 5 C2.1875 6.0625 2.1875 6.0625 0 7 C-0.99 6.67 -1.98 6.34 -3 6 C-3.33 6.99 -3.66 7.98 -4 9 C-4.99 9.33 -5.98 9.66 -7 10 C-8.5625 7.625 -8.5625 7.625 -10 5 C-9.67 4.34 -9.34 3.68 -9 3 C-8.01 3 -7.02 3 -6 3 C-5.34 2.34 -4.68 1.68 -4 1 C-1.875 0.375 -1.875 0.375 0 0 Z " fill="#CBC7C9" transform="translate(213,270)"/>
<path d="M0 0 C2.97 0 5.94 0 9 0 C8.49785005 4.39381209 7.07786311 6.83419795 4 10 C1.75 10.8125 1.75 10.8125 0 11 C0.33 9.35 0.66 7.7 1 6 C1.99 5.67 2.98 5.34 4 5 C3.01 4.67 2.02 4.34 1 4 C1.33 3.34 1.66 2.68 2 2 C1.34 2 0.68 2 0 2 C0 1.34 0 0.68 0 0 Z " fill="#CBC7C9" transform="translate(404,276)"/>
<path d="M0 0 C1.79133978 -0.05391993 3.58313899 -0.09275571 5.375 -0.125 C6.37273437 -0.14820313 7.37046875 -0.17140625 8.3984375 -0.1953125 C11 0 11 0 13 2 C12.34 2 11.68 2 11 2 C11 3.32 11 4.64 11 6 C10.72116193 9.0074678 10.35295438 11.99988781 10 15 C7.03 15 4.06 15 1 15 C1 14.67 1 14.34 1 14 C3.64 14 6.28 14 9 14 C8.36020151 11.96758273 8.36020151 11.96758273 7 10 C4.44480079 9.18828772 4.44480079 9.18828772 2 9 C2 8.67 2 8.34 2 8 C3.65 8 5.3 8 7 8 C7.144375 7.195625 7.28875 6.39125 7.4375 5.5625 C8 3 8 3 9 2 C6.03 1.67 3.06 1.34 0 1 C0 0.67 0 0.34 0 0 Z " fill="#A09B9D" transform="translate(360,253)"/>
<path d="M0 0 C2.31 0 4.62 0 7 0 C7.33 0.99 7.66 1.98 8 3 C5.12340116 6.01357974 3.15801695 7.95458757 -1.1875 8.125 C-2.115625 8.08375 -3.04375 8.0425 -4 8 C-2.68 6.68 -1.36 5.36 0 4 C-0.66 4 -1.32 4 -2 4 C-1.34 2.68 -0.68 1.36 0 0 Z " fill="#F1EFED" transform="translate(271,241)"/>
<path d="M0 0 C0.66 0.99 1.32 1.98 2 3 C1.34 3 0.68 3 0 3 C0 4.65 0 6.3 0 8 C1.65 8 3.3 8 5 8 C4.01 8.33 3.02 8.66 2 9 C2.33 9.99 2.66 10.98 3 12 C2.34 12 1.68 12 1 12 C0.67 12.99 0.34 13.98 0 15 C-0.33 15 -0.66 15 -1 15 C-1.33 20.94 -1.66 26.88 -2 33 C-2.33 33 -2.66 33 -3 33 C-3.30854946 21.53795877 -3.39129971 11.06209668 0 0 Z " fill="#B3ADB2" transform="translate(66,210)"/>
<path d="M0 0 C-1.32 0.33 -2.64 0.66 -4 1 C-4.05422947 2.4370809 -4.09289723 3.87475462 -4.125 5.3125 C-4.15980469 6.51326172 -4.15980469 6.51326172 -4.1953125 7.73828125 C-4.15817322 10.28388576 -4.15817322 10.28388576 -2 13 C-6.21543758 11.49448658 -7.86049125 8.82055134 -10 5 C-10 3.68 -10 2.36 -10 1 C-6.59437148 0.22157062 -3.49234244 -0.09978121 0 0 Z " fill="#B9B4B7" transform="translate(302,273)"/>
<path d="M0 0 C1.65 0 3.3 0 5 0 C5 2.97 5 5.94 5 9 C2.03 9 -0.94 9 -4 9 C-3.34 8.67 -2.68 8.34 -2 8 C-1.34444881 5.47266765 -1.34444881 5.47266765 -1 3 C-0.01 2.67 0.98 2.34 2 2 C2.66 2.33 3.32 2.66 4 3 C4 2.34 4 1.68 4 1 C2.68 0.67 1.36 0.34 0 0 Z " fill="#C4C0C3" transform="translate(344,253)"/>
<path d="M0 0 C1.65 0.99 3.3 1.98 5 3 C4.34 5.97 3.68 8.94 3 12 C2.34 12 1.68 12 1 12 C0.67 12.99 0.34 13.98 0 15 C-1.5638537 10.1129572 -1.5638537 4.8870428 0 0 Z " fill="#C8C3C6" transform="translate(202,256)"/>
<path d="M0 0 C0.33 0 0.66 0 1 0 C1 9.24 1 18.48 1 28 C-2.96 28.495 -2.96 28.495 -7 29 C-7.33 28.34 -7.66 27.68 -8 27 C-8.66 26.67 -9.32 26.34 -10 26 C-8.68 25.34 -7.36 24.68 -6 24 C-5.34 24.66 -4.68 25.32 -4 26 C-1.93125966 26.6425235 -1.93125966 26.6425235 0 27 C-0.33 26.01 -0.66 25.02 -1 24 C-1.01578603 22.15197031 -0.96681127 20.30303657 -0.87890625 18.45703125 C-0.83056641 17.38388672 -0.78222656 16.31074219 -0.73242188 15.20507812 C-0.67634766 14.08552734 -0.62027344 12.96597656 -0.5625 11.8125 C-0.51029297 10.68134766 -0.45808594 9.55019531 -0.40429688 8.38476562 C-0.27456193 5.5895672 -0.13959359 2.7947206 0 0 Z " fill="#D2CDD2" transform="translate(378,259)"/>
<path d="M0 0 C2.64 0 5.28 0 8 0 C7.42415568 2.38564077 6.77772405 4.66682784 6 7 C4.02 7 2.04 7 0 7 C0.66 6.67 1.32 6.34 2 6 C2 5.34 2 4.68 2 4 C1.01 3.67 0.02 3.34 -1 3 C-0.67 2.01 -0.34 1.02 0 0 Z " fill="#F2EFEF" transform="translate(395,254)"/>
<path d="M0 0 C-0.66 0.66 -1.32 1.32 -2 2 C-2.6425235 4.06874034 -2.6425235 4.06874034 -3 6 C-2.01 5.67 -1.02 5.34 0 5 C0.33 5.66 0.66 6.32 1 7 C-2.63 7 -6.26 7 -10 7 C-9.67 6.34 -9.34 5.68 -9 5 C-8.34 5 -7.68 5 -7 5 C-7.33 3.68 -7.66 2.36 -8 1 C-2.25 -1.125 -2.25 -1.125 0 0 Z " fill="#F2F1EF" transform="translate(229,280)"/>
<path d="M0 0 C-1.34484714 4.04161955 -3.0505162 6.38678154 -6.125 9.3125 C-6.84945312 10.00988281 -7.57390625 10.70726562 -8.3203125 11.42578125 C-8.87460938 11.94527344 -9.42890625 12.46476563 -10 13 C-10.99 12.67 -11.98 12.34 -13 12 C-13 11.34 -13 10.68 -13 10 C-12.195625 9.731875 -11.39125 9.46375 -10.5625 9.1875 C-9.716875 8.795625 -8.87125 8.40375 -8 8 C-7.67 7.01 -7.34 6.02 -7 5 C-2.46511628 0 -2.46511628 0 0 0 Z " fill="#AFABAE" transform="translate(96,237)"/>
<path d="M0 0 C0.474375 0.66 0.94875 1.32 1.4375 2 C5.14875563 4.89658976 8.45397207 4.34969446 13 4 C11.71484375 5.49609375 11.71484375 5.49609375 10 7 C7.66705225 7.04241723 5.33297433 7.04092937 3 7 C0.64630193 7.88064927 0.64630193 7.88064927 -1 9 C-1.66 7.35 -2.32 5.7 -3 4 C-2.34 3.67 -1.68 3.34 -1 3 C-0.67 2.01 -0.34 1.02 0 0 Z " fill="#B7B3B4" transform="translate(302,274)"/>
<path d="M0 0 C0.33 0.66 0.66 1.32 1 2 C1.66 2 2.32 2 3 2 C3 2.66 3 3.32 3 4 C3.66 4.33 4.32 4.66 5 5 C4 7 4 7 2 8 C1.67 8.99 1.34 9.98 1 11 C-1.31 11 -3.62 11 -6 11 C-5.04867188 10.64808594 -5.04867188 10.64808594 -4.078125 10.2890625 C-1.81749261 9.17709092 -1.81749261 9.17709092 -1.171875 6.8359375 C-0.96304687 5.61777344 -0.96304687 5.61777344 -0.75 4.375 C-0.60046875 3.55773437 -0.4509375 2.74046875 -0.296875 1.8984375 C-0.19890625 1.27195312 -0.1009375 0.64546875 0 0 Z " fill="#F1EFEE" transform="translate(403,276)"/>
<path d="M0 0 C0 0.66 0 1.32 0 2 C-0.99 2.33 -1.98 2.66 -3 3 C-3.33 3.99 -3.66 4.98 -4 6 C-4.66 6 -5.32 6 -6 6 C-6.33 7.32 -6.66 8.64 -7 10 C-8.98 10 -10.96 10 -13 10 C-11.68 9.34 -10.36 8.68 -9 8 C-8.77390663 5.87635519 -8.77390663 5.87635519 -10.5 4.375 C-10.995 3.92125 -11.49 3.4675 -12 3 C-8.97265625 2.26757812 -8.97265625 2.26757812 -5.9453125 1.53515625 C-0.3649635 0 -0.3649635 0 0 0 Z " fill="#F3F1F0" transform="translate(279,277)"/>
<path d="M0 0 C1.32 0.66 2.64 1.32 4 2 C4 2.99 4 3.98 4 5 C0.7 5 -2.6 5 -6 5 C-6 3.68 -6 2.36 -6 1 C-4.35 1.33 -2.7 1.66 -1 2 C-0.67 1.34 -0.34 0.68 0 0 Z " fill="#CECBCB" transform="translate(362,283)"/>
<path d="M0 0 C0.66 0.33 1.32 0.66 2 1 C1.04882866 2.1725131 0.08882991 3.33787015 -0.875 4.5 C-1.40867187 5.1496875 -1.94234375 5.799375 -2.4921875 6.46875 C-2.98976563 6.9740625 -3.48734375 7.479375 -4 8 C-4.66 8 -5.32 8 -6 8 C-6 11.3 -6 14.6 -6 18 C-6.33 18 -6.66 18 -7 18 C-7.86101859 7.24683455 -7.86101859 7.24683455 -4.625 3.375 C-2 1 -2 1 0 0 Z " fill="#989297" transform="translate(300,241)"/>
<path d="M0 0 C1.32 0.33 2.64 0.66 4 1 C4 1.99 4 2.98 4 4 C6.44496043 5.71711243 6.44496043 5.71711243 9 7 C8.67 8.32 8.34 9.64 8 11 C8 10.01 8 9.02 8 8 C5.36 8 2.72 8 0 8 C0 5.36 0 2.72 0 0 Z " fill="#ACA8AB" transform="translate(225,263)"/>
<path d="M0 0 C1.32 0 2.64 0 4 0 C3.67 1.32 3.34 2.64 3 4 C2.34 4 1.68 4 1 4 C1.99 5.98 2.98 7.96 4 10 C3.01 10.33 2.02 10.66 1 11 C-0.98362069 8.08291076 -0.9876191 6.87619096 -0.625 3.25 C-0.41875 2.1775 -0.2125 1.105 0 0 Z " fill="#F2EEEF" transform="translate(298,274)"/>
<path d="M0 0 C0.99 0.99 1.98 1.98 3 3 C3.66 2.34 4.32 1.68 5 1 C5.33 1.639375 5.66 2.27875 6 2.9375 C9.02329832 6.0552764 11.73656724 5.72043064 16 6 C16 6.33 16 6.66 16 7 C6.18363679 7.46417129 6.18363679 7.46417129 1.8125 5.75 C1.214375 5.1725 0.61625 4.595 0 4 C0 2.68 0 1.36 0 0 Z " fill="#AEACAF" transform="translate(332,281)"/>
<path d="M0 0 C3.3 0 6.6 0 10 0 C9.01 1.98 8.02 3.96 7 6 C5.68 5.67 4.36 5.34 3 5 C3 4.34 3 3.68 3 3 C2.01 2.01 1.02 1.02 0 0 Z " fill="#F1EEEE" transform="translate(360,254)"/>
<path d="M0 0 C3.63 0 7.26 0 11 0 C10.67 1.98 10.34 3.96 10 6 C8.35 6.33 6.7 6.66 5 7 C5.875 3.125 5.875 3.125 7 2 C4.69 1.67 2.38 1.34 0 1 C0 0.67 0 0.34 0 0 Z " fill="#D2CFCD" transform="translate(302,240)"/>
<path d="M0 0 C0.99 0 1.98 0 3 0 C3 0.66 3 1.32 3 2 C5.475 2.99 5.475 2.99 8 4 C6 6 6 6 2.375 6.125 C1.26125 6.08375 0.1475 6.0425 -1 6 C-1.042721 4.33388095 -1.04063832 2.66617115 -1 1 C-0.67 0.67 -0.34 0.34 0 0 Z " fill="#F1EBED" transform="translate(404,259)"/>
<path d="M0 0 C2.875 0.25 2.875 0.25 6 1 C7.86790938 3.54714915 8 4.80869 8 8 C5.07175348 7.02391783 3.38573379 5.89213369 1 4 C1.33 3.34 1.66 2.68 2 2 C1.34 2 0.68 2 0 2 C0 1.34 0 0.68 0 0 Z " fill="#CAC4C8" transform="translate(405,257)"/>
<path d="M0 0 C0.66 0 1.32 0 2 0 C2 0.99 2 1.98 2 3 C2.99 3.33 3.98 3.66 5 4 C4.67 5.32 4.34 6.64 4 8 C5.65 8 7.3 8 9 8 C9 8.33 9 8.66 9 9 C7.35 9 5.7 9 4 9 C3.67 9.66 3.34 10.32 3 11 C1.5 9.6875 1.5 9.6875 0 8 C0 5.33333333 0 2.66666667 0 0 Z " fill="#C3BFC1" transform="translate(146,202)"/>
<path d="M0 0 C1.98 1.32 3.96 2.64 6 4 C3.51565563 6.34290892 2.22268407 6.97982934 -1.234375 7.29296875 C-2.39453125 7.25816406 -3.5546875 7.22335937 -4.75 7.1875 C-5.92046875 7.16042969 -7.0909375 7.13335937 -8.296875 7.10546875 C-9.18890625 7.07066406 -10.0809375 7.03585937 -11 7 C-11 6.67 -11 6.34 -11 6 C-5.555 5.505 -5.555 5.505 0 5 C-0.33 3.68 -0.66 2.36 -1 1 C-0.67 0.67 -0.34 0.34 0 0 Z " fill="#B2AFB0" transform="translate(229,281)"/>
<path d="M0 0 C2.62386487 3.06117568 3 3.73173127 3 8 C-1.625 10.125 -1.625 10.125 -5 9 C-4.34 9 -3.68 9 -3 9 C-2.67 7.68 -2.34 6.36 -2 5 C-1.34 5 -0.68 5 0 5 C0 3.35 0 1.7 0 0 Z " fill="#B2AAB1" transform="translate(240,246)"/>
<path d="M0 0 C2.125 0.375 2.125 0.375 4 1 C3.67 2.98 3.34 4.96 3 7 C1.68 6.67 0.36 6.34 -1 6 C-1.625 4.125 -1.625 4.125 -2 2 C-1.34 1.34 -0.68 0.68 0 0 Z " fill="#DCD8DA" transform="translate(66,241)"/>
<path d="M0 0 C1.32 0.33 2.64 0.66 4 1 C3.34 1 2.68 1 2 1 C2 3.64 2 6.28 2 9 C0.68 9 -0.64 9 -2 9 C-2.33 9.99 -2.66 10.98 -3 12 C-2.67 10.35 -2.34 8.7 -2 7 C-1.34 7 -0.68 7 0 7 C0 4.69 0 2.38 0 0 Z " fill="#BCB7BC" transform="translate(330,246)"/>
<path d="M0 0 C0.66 0.99 1.32 1.98 2 3 C1.34 3 0.68 3 0 3 C0 4.65 0 6.3 0 8 C1.65 8 3.3 8 5 8 C4.01 8.33 3.02 8.66 2 9 C2.33 9.99 2.66 10.98 3 12 C1.68 12.33 0.36 12.66 -1 13 C-1.02696365 11.20841511 -1.04637917 9.41671527 -1.0625 7.625 C-1.07410156 6.62726563 -1.08570312 5.62953125 -1.09765625 4.6015625 C-1 2 -1 2 0 0 Z " fill="#C8C5C6" transform="translate(66,210)"/>
<path d="M0 0 C0.99 0.66 1.98 1.32 3 2 C2.34 3.65 1.68 5.3 1 7 C-1.475 6.01 -1.475 6.01 -4 5 C-2.25 1.125 -2.25 1.125 0 0 Z " fill="#F3EFEE" transform="translate(172,196)"/>
<path d="M0 0 C1.27875 -0.061875 2.5575 -0.12375 3.875 -0.1875 C4.95394531 -0.23970703 4.95394531 -0.23970703 6.0546875 -0.29296875 C6.69664062 -0.19628906 7.33859375 -0.09960938 8 0 C8.66 0.99 9.32 1.98 10 3 C8.02 3.99 8.02 3.99 6 5 C3.98079663 3.69593116 1.98075027 2.36176581 0 1 C0 0.67 0 0.34 0 0 Z " fill="#F4F0F3" transform="translate(362,280)"/>
<path d="M0 0 C0.66 0.33 1.32 0.66 2 1 C1.8125 2.8125 1.8125 2.8125 1 5 C-1.5625 6.75 -1.5625 6.75 -4 8 C-4 5 -4 5 -3 2 C-2.01 1.34 -1.02 0.68 0 0 Z " fill="#F1EEEC" transform="translate(302,255)"/>
<path d="M0 0 C0.33 0 0.66 0 1 0 C1.14285714 8.57142857 1.14285714 8.57142857 0 12 C-0.66 12 -1.32 12 -2 12 C-2.33 9.69 -2.66 7.38 -3 5 C-2.01 5.495 -2.01 5.495 -1 6 C-0.67 4.02 -0.34 2.04 0 0 Z " fill="#999498" transform="translate(244,263)"/>
<path d="M0 0 C2.5 1.375 2.5 1.375 5 3 C5 3.66 5 4.32 5 5 C2.03 5 -0.94 5 -4 5 C-3.01 4.67 -2.02 4.34 -1 4 C-0.26676204 1.98491642 -0.26676204 1.98491642 0 0 Z " fill="#E7E3E6" transform="translate(320,248)"/>
<path d="M0 0 C1.98 0 3.96 0 6 0 C5.0409375 1.1446875 5.0409375 1.1446875 4.0625 2.3125 C1.85767219 4.88246713 1.85767219 4.88246713 1 8 C0.34 8 -0.32 8 -1 8 C-0.835 7.236875 -0.67 6.47375 -0.5 5.6875 C0.09145396 2.96403764 0.09145396 2.96403764 0 0 Z " fill="#E2E0DF" transform="translate(227,278)"/>
<path d="M0 0 C3.3 0.33 6.6 0.66 10 1 C9.34 2.65 8.68 4.3 8 6 C7.34 4.68 6.68 3.36 6 2 C4.02 2 2.04 2 0 2 C0 1.34 0 0.68 0 0 Z " fill="#ABA8AA" transform="translate(435,253)"/>
<path d="M0 0 C0 1.98 0 3.96 0 6 C-1.65 6 -3.3 6 -5 6 C-4.6875 4.125 -4.6875 4.125 -4 2 C-1 0 -1 0 0 0 Z " fill="#EDEBEB" transform="translate(347,280)"/>
<path d="M0 0 C0.66 0.66 1.32 1.32 2 2 C-0.46153846 6.8 -0.46153846 6.8 -3.1875 7.8125 C-3.785625 7.874375 -4.38375 7.93625 -5 8 C-5 6.68 -5 5.36 -5 4 C-3.35 3.34 -1.7 2.68 0 2 C0 1.34 0 0.68 0 0 Z " fill="#F1EDEC" transform="translate(389,257)"/>
<path d="M0 0 C2.125 0.9375 2.125 0.9375 4 2 C4 3.65 4 5.3 4 7 C0.26360784 5.75453595 -0.18756513 4.36595047 -2 1 C-1.34 0.67 -0.68 0.34 0 0 Z " fill="#D0CDCF" transform="translate(284,246)"/>
<path d="M0 0 C0.66 0 1.32 0 2 0 C0.68775452 3.93673644 -0.91910327 6.22719294 -4 9 C-4 7.68 -4 6.36 -4 5 C-3.34 4.67 -2.68 4.34 -2 4 C-0.86649466 1.98330173 -0.86649466 1.98330173 0 0 Z " fill="#A9A6A8" transform="translate(287,275)"/>
<path d="M0 0 C0.75410156 0.00451172 1.50820313 0.00902344 2.28515625 0.01367188 C4.14847127 0.02546501 6.01174555 0.04340058 7.875 0.0625 C7.875 0.3925 7.875 0.7225 7.875 1.0625 C6.88757813 1.12308594 5.90015625 1.18367187 4.8828125 1.24609375 C3.60148437 1.32988281 2.32015625 1.41367188 1 1.5 C-0.27617187 1.58121094 -1.55234375 1.66242188 -2.8671875 1.74609375 C-6.00800152 1.85456027 -6.00800152 1.85456027 -8.125 3.0625 C-8.785 2.4025 -9.445 1.7425 -10.125 1.0625 C-6.93675432 -0.53162284 -3.49603338 -0.03924735 0 0 Z " fill="#8B8688" transform="translate(270.125,239.9375)"/>
<path d="M0 0 C1.32 0 2.64 0 4 0 C4 0.66 4 1.32 4 2 C3.34 2.66 2.68 3.32 2 4 C1.67 4.66 1.34 5.32 1 6 C-1.475 5.01 -1.475 5.01 -4 4 C-3 2 -3 2 -1 1 C-0.67 0.67 -0.34 0.34 0 0 Z " fill="#F3EFED" transform="translate(433,272)"/>
<path d="M0 0 C1.65 0 3.3 0 5 0 C3.515 2.475 3.515 2.475 2 5 C2.66 5.33 3.32 5.66 4 6 C2.35 6 0.7 6 -1 6 C-0.67 4.02 -0.34 2.04 0 0 Z " fill="#C6C2C6" transform="translate(352,259)"/>
<path d="M0 0 C0.33 0.66 0.66 1.32 1 2 C1.66 2.165 2.32 2.33 3 2.5 C3.66 2.665 4.32 2.83 5 3 C5.33 3.66 5.66 4.32 6 5 C3 6 3 6 0 5 C-0.75 3 -0.75 3 -1 1 C-0.67 0.67 -0.34 0.34 0 0 Z " fill="#EFECE8" transform="translate(357,280)"/>
<path d="M0 0 C2.66666667 1.33333333 5.33333333 2.66666667 8 4 C5.69 4.33 3.38 4.66 1 5 C0.67 4.34 0.34 3.68 0 3 C-0.66 2.67 -1.32 2.34 -2 2 C-1.34 1.34 -0.68 0.68 0 0 Z " fill="#969196" transform="translate(370,283)"/>
<path d="M0 0 C1.32 0.66 2.64 1.32 4 2 C3.67 2.99 3.34 3.98 3 5 C1.68 4.67 0.36 4.34 -1 4 C-0.67 2.68 -0.34 1.36 0 0 Z " fill="#EEEAEB" transform="translate(355,260)"/>
<path d="M0 0 C2.375 0.3125 2.375 0.3125 5 1 C5.66 1.99 6.32 2.98 7 4 C5.35 3.67 3.7 3.34 2 3 C1.67 3.66 1.34 4.32 1 5 C0.67 3.35 0.34 1.7 0 0 Z " fill="#B2ADB2" transform="translate(403,254)"/>
<path d="M0 0 C1.485 0.99 1.485 0.99 3 2 C2.67 3.65 2.34 5.3 2 7 C1.01 7 0.02 7 -1 7 C-0.67 4.69 -0.34 2.38 0 0 Z " fill="#F0ECED" transform="translate(211,251)"/>
<path d="M0 0 C2.05078125 0.03255208 4.1015625 0.06510417 6.15234375 0.09765625 C6.15234375 0.42765625 6.15234375 0.75765625 6.15234375 1.09765625 C4.48171875 1.22140625 4.48171875 1.22140625 2.77734375 1.34765625 C-0.90519569 1.67639412 -0.90519569 1.67639412 -2.28515625 4.16015625 C-2.47078125 4.79953125 -2.65640625 5.43890625 -2.84765625 6.09765625 C-2.89037725 4.4315372 -2.88829457 2.7638274 -2.84765625 1.09765625 C-1.84765625 0.09765625 -1.84765625 0.09765625 0 0 Z " fill="#9D9B9D" transform="translate(304.84765625,247.90234375)"/>
<path d="M0 0 C0.66 0.33 1.32 0.66 2 1 C0.75023244 4.65316671 0.32901247 5.78065836 -3 8 C-2.25 2.25 -2.25 2.25 0 0 Z " fill="#F2EEEF" transform="translate(206,251)"/>
<path d="M0 0 C1.32 0.33 2.64 0.66 4 1 C2.71034824 2.37562854 1.37310707 3.70766393 0 5 C-0.66 5 -1.32 5 -2 5 C-1.34 3.35 -0.68 1.7 0 0 Z " fill="#D4CDD3" transform="translate(177,246)"/>
<path d="M0 0 C0.66 0.66 1.32 1.32 2 2 C1.67 2.99 1.34 3.98 1 5 C-0.32 5 -1.64 5 -3 5 C-2.625 3.0625 -2.625 3.0625 -2 1 C-1.34 0.67 -0.68 0.34 0 0 Z " fill="#F0EFEC" transform="translate(153,205)"/>
<path d="M0 0 C-0.33 1.32 -0.66 2.64 -1 4 C-2.65 4.33 -4.3 4.66 -6 5 C-3.74193548 0 -3.74193548 0 0 0 Z " fill="#BBB7BA" transform="translate(84,177)"/>
</svg>
